<svg width="120" height="120" viewBox="0 0 120 120" fill="none" xmlns="http://www.w3.org/2000/svg">
<path fill-rule="evenodd" clip-rule="evenodd" d="M20.9825 99.737C21.9649 100.927 23.1746 101.91 24.5409 102.627H24.5435C24.9175 104.921 25.3192 107.211 25.7485 109.496C26.6319 114.204 30.1068 118.404 35.3918 119.203C38.2615 119.637 42.1679 120 47.2052 120C51.1469 120.01 55.0852 119.767 58.9957 119.272C65.0671 118.475 69.0321 113.456 69.6321 107.923L70.2117 102.569C72.9177 101.108 74.936 98.6361 75.826 95.6926C76.5655 93.2894 77.2541 90.871 77.8915 88.4388C82.8479 84.2404 86.8903 79.0698 89.7688 73.2468C90.3427 72.0359 90.4176 70.6479 89.9774 69.3822C89.5372 68.1165 88.6171 67.0745 87.4156 66.4812C86.2141 65.8878 84.8276 65.7905 83.555 66.2102C82.2824 66.63 81.2259 67.5332 80.6132 68.725C78.1439 73.7182 74.587 78.0945 70.204 81.5322C69.3089 82.2355 68.6745 83.2177 68.4015 84.3229C67.6987 87.1353 66.9189 89.928 66.0628 92.6976C65.8611 93.3538 65.4194 93.627 65.016 93.6678C61.7582 94.01 56.103 94.4006 47.3227 94.4006C38.5424 94.4006 32.8872 94.01 29.6293 93.6678C29.2259 93.627 28.7842 93.3563 28.5825 92.6976C27.7277 89.9276 26.9478 87.135 26.2439 84.3229C25.9709 83.2177 25.3364 82.2355 24.4413 81.5322C20.004 78.0604 16.4162 73.6229 13.9507 68.5567C11.4852 63.4905 10.2068 57.929 10.2126 52.2947C10.2126 31.7792 26.8311 15.1575 47.3227 15.1575C49.5677 15.1563 51.8083 15.358 54.017 15.76C55.3496 16.0028 56.7241 15.7062 57.838 14.9355C58.952 14.1649 59.7142 12.9832 59.9569 11.6506C60.1997 10.3179 59.9031 8.94336 59.1325 7.82936C58.3618 6.71537 57.1802 5.95314 55.8476 5.71038C53.08 5.20739 50.2282 4.9444 47.3227 4.9444C21.1835 4.9444 2.88736e-05 26.1467 2.88736e-05 52.2947C-0.00757696 59.176 1.48754 65.976 4.3809 72.2194C7.27425 78.4629 11.496 83.9991 16.7512 88.4413C17.3895 90.8735 18.079 93.292 18.8193 95.6951C19.2648 97.1727 20.0002 98.5468 20.9825 99.737Z" fill="black"/>
<path d="M97.6938 3.32052C95.2734 -1.10684 88.9135 -1.10684 86.4931 3.32052L81.3945 12.6476C80.3411 14.5763 78.7568 16.1624 76.8294 17.2179L67.5053 22.3194C63.0807 24.7399 63.0807 31.0975 67.5053 33.518L76.8294 38.622C78.7565 39.6768 80.3408 41.262 81.3945 43.1898L86.4931 52.5169C88.9135 56.9442 95.2759 56.9442 97.6938 52.5169L102.792 43.1898C103.846 41.2611 105.43 39.6749 107.357 38.6194L116.682 33.518C121.106 31.0975 121.106 24.7424 116.682 22.3194L107.357 17.2179C105.43 16.1624 103.846 14.5763 102.792 12.6476L97.6938 3.32052Z" fill="#F6CD14"/>
</svg>
