<svg width="109" height="120" viewBox="0 0 109 120" fill="none" xmlns="http://www.w3.org/2000/svg">
<path d="M54.1172 3.58887C58.4789 3.58887 62.7815 4.5991 66.6875 6.54004H66.6885L89.8398 18.04C98.5072 22.3522 104.542 30.8892 104.645 40.7666V41.2373C104.543 52.5811 103.368 68.7671 98.0225 79.9648L98.0215 79.9668C92.0827 92.4275 78.3856 104.175 68.3916 111.637L68.3809 111.645C64.2689 114.738 59.2628 116.411 54.1172 116.411C48.9716 116.411 43.9655 114.738 39.8535 111.645L39.8477 111.641L39.8418 111.636C29.8504 104.182 16.1519 92.4211 10.2129 79.9658L10.2119 79.9648L9.96484 79.4365C5.15584 68.9719 3.85059 54.3983 3.62207 43.418L3.58984 41.2373C3.50158 31.161 9.58995 22.4206 18.3945 18.04L41.5469 6.54004C45.4529 4.59909 49.7555 3.58889 54.1172 3.58887ZM54.1172 9.14551C50.6135 9.14553 47.1572 9.95648 44.0195 11.5156L20.8682 23.0146V23.0156C13.7298 26.5624 9.07595 33.4849 9.14648 41.1855V41.1865C9.24693 52.3233 10.4235 67.1098 15.0059 77.1016L15.2266 77.5732C17.918 83.2196 22.4585 88.764 27.4395 93.749C32.4537 98.7674 38.0891 103.391 43.165 107.177H43.166C49.7238 112.067 58.5116 112.067 65.0693 107.177C70.1453 103.391 75.7806 98.7674 80.7949 93.749C85.6203 88.9196 90.032 83.565 92.75 78.1016L93.0078 77.5732C97.7732 67.5796 98.9859 52.5 99.0879 41.1865L99.0869 41.1855C99.1575 33.4831 94.4973 26.5615 87.3682 23.0156L87.3662 23.0146L64.2139 11.5156H64.2148C61.0772 9.9565 57.6209 9.14551 54.1172 9.14551Z" fill="#040404" stroke="#040404" stroke-width="7.17812"/>
<path d="M69.7812 46.9148C70.514 46.8482 71.2438 47.0744 71.8096 47.5447V47.5457C72.3751 48.0173 72.7301 48.6941 72.7969 49.4275C72.8636 50.1609 72.6363 50.8908 72.165 51.4568L60.7119 65.2087C59.8981 66.1842 58.8901 66.9794 57.752 67.5437C56.6138 68.108 55.3706 68.4288 54.1016 68.4861C52.8325 68.5433 51.5652 68.3353 50.3809 67.8757C50.347 67.8626 50.3139 67.8473 50.2803 67.8337L56.2256 61.8884L56.3408 61.7742L56.3447 61.7683L58.7637 59.3513L58.543 59.1306L67.9004 47.9011L67.8994 47.9001C68.371 47.3353 69.0484 46.9815 69.7812 46.9148ZM41.3799 53.2693C42.0245 53.2693 42.6463 53.4932 43.1406 53.8982L43.3438 54.0828L48.6123 59.3503L44.6836 63.2781L39.416 58.0105C38.8953 57.4896 38.6026 56.7832 38.6025 56.0466C38.6025 55.3103 38.8947 54.6037 39.415 54.0828C39.936 53.5619 40.6432 53.2693 41.3799 53.2693Z" fill="#040404" stroke="#F6CD14" stroke-width="7.17812"/>
</svg>
