<svg width="132" height="132" viewBox="0 0 132 132" fill="none" xmlns="http://www.w3.org/2000/svg">
<path d="M6 66C6 73.8793 7.55195 81.6815 10.5672 88.961C13.5825 96.2405 18.0021 102.855 23.5736 108.426C29.1451 113.998 35.7595 118.417 43.039 121.433C50.3185 124.448 58.1207 126 66 126C73.8793 126 81.6815 124.448 88.961 121.433C96.2405 118.417 102.855 113.998 108.426 108.426C113.998 102.855 118.417 96.2405 121.433 88.961C124.448 81.6815 126 73.8793 126 66C126 50.087 119.679 34.8258 108.426 23.5736C97.1742 12.3214 81.913 6 66 6C50.087 6 34.8258 12.3214 23.5736 23.5736C12.3214 34.8258 6 50.087 6 66Z" stroke="black" stroke-width="12" stroke-linecap="round" stroke-linejoin="round"/>
<path d="M66.9199 33.0756V66.92L87.2266 87.2267" stroke="#F6CD14" stroke-width="9" stroke-linecap="round" stroke-linejoin="round"/>
</svg>
