<svg width="117" height="120" viewBox="0 0 117 120" fill="none" xmlns="http://www.w3.org/2000/svg">
<path d="M58.0554 0C60.2344 0 62.3825 0.118047 64.4995 0.354139C65.2574 0.438002 65.9912 0.670307 66.6593 1.03779C67.3273 1.40528 67.9165 1.90074 68.393 2.4959C68.8696 3.09106 69.2242 3.77426 69.4368 4.50649C69.6493 5.23872 69.7155 6.00563 69.6316 6.76345C69.5478 7.52127 69.3155 8.25515 68.948 8.9232C68.5805 9.59124 68.085 10.1804 67.4899 10.6569C66.8947 11.1335 66.2115 11.4881 65.4793 11.7007C64.7471 11.9132 63.9801 11.9794 63.2223 11.8955C53.6551 10.8253 43.9916 12.7544 35.5687 17.4162C27.1457 22.0779 20.3795 29.2419 16.206 37.9171C12.0324 46.5924 10.6578 56.3501 12.2723 65.8407C13.8867 75.3314 18.4105 84.0858 25.2178 90.893C32.025 97.7003 40.7794 102.224 50.2701 103.839C59.7607 105.453 69.5184 104.078 78.1937 99.9048C86.8689 95.7313 94.0329 88.9651 98.6946 80.5421C103.356 72.1192 105.286 62.4557 104.215 52.8885C104.131 52.1306 104.198 51.3637 104.41 50.6315C104.623 49.8993 104.977 49.2161 105.454 48.6209C106.416 47.4189 107.817 46.6485 109.347 46.4791C110.878 46.3098 112.413 46.7553 113.615 47.7178C114.21 48.1943 114.706 48.7835 115.073 49.4515C115.44 50.1195 115.673 50.8534 115.757 51.6113C115.989 53.7283 116.107 55.8764 116.111 58.0554C116.111 90.1194 90.1194 116.111 58.0554 116.111C25.9914 116.111 0 90.1194 0 58.0554C0 25.9914 25.9914 0 58.0554 0ZM57.8696 34.1192C58.2522 35.6096 58.0275 37.1909 57.2448 38.5157C56.4621 39.8405 55.1855 40.8004 53.6954 41.1845C49.6018 42.2569 46.0381 44.782 43.6695 48.2888C41.3008 51.7956 40.289 56.0444 40.8228 60.2423C41.3566 64.4403 43.3996 68.3007 46.5705 71.103C49.7414 73.9054 53.8236 75.4583 58.0554 75.472C61.9178 75.4736 65.6713 74.1913 68.7253 71.8267C71.7793 69.4621 73.9607 66.1494 74.9263 62.4096C75.3378 60.9486 76.3051 59.7069 77.6209 58.9505C78.9368 58.194 80.4966 57.9829 81.9661 58.3625C83.4357 58.742 84.6982 59.682 85.4832 60.981C86.2682 62.28 86.5132 63.8348 86.1658 65.3123C84.3848 72.1392 80.1794 78.0843 74.335 82.0368C68.4907 85.9893 61.4073 87.6789 54.4081 86.7899C47.409 85.901 40.9728 82.4943 36.3021 77.2063C31.6313 71.9183 29.0455 65.1108 29.0277 58.0554C29.0267 51.6193 31.1647 45.3654 35.1056 40.2769C39.0465 35.1884 44.5668 31.554 50.7985 29.945C51.5369 29.7547 52.3055 29.7117 53.0605 29.8185C53.8155 29.9252 54.5421 30.1797 55.1987 30.5673C55.8553 30.955 56.4292 31.4681 56.8875 32.0776C57.3457 32.687 57.6795 33.3807 57.8696 34.1192ZM95.8146 0.737304C96.8743 1.17666 97.7801 1.92011 98.4176 2.8738C99.0551 3.82749 99.3958 4.94867 99.3966 6.09582V16.72H110.015C111.163 16.7202 112.285 17.0608 113.24 17.6988C114.194 18.3367 114.938 19.2433 115.377 20.304C115.817 21.3647 115.932 22.5318 115.708 23.6578C115.484 24.7838 114.931 25.8181 114.119 26.63L93.5853 47.141C92.4968 48.2298 91.0204 48.8417 89.4808 48.842H75.472L64.8595 59.4603C63.7701 60.5497 62.2927 61.1617 60.7521 61.1617C59.2115 61.1617 57.734 60.5497 56.6446 59.4603C55.5553 58.371 54.9433 56.8935 54.9433 55.3529C54.9433 53.8123 55.5553 52.3349 56.6446 51.2455L67.263 40.6388V26.6242C67.2633 25.0846 67.8752 23.6082 68.964 22.5197L89.4866 1.9913C90.2985 1.17891 91.3331 0.625595 92.4595 0.401345C93.5859 0.177094 94.7535 0.29199 95.8146 0.731498M87.7856 20.1046L78.8741 29.0277V37.2367H87.0831L96.0004 28.3252H93.5911C92.0514 28.3252 90.5747 27.7136 89.486 26.6248C88.3972 25.5361 87.7856 24.0594 87.7856 22.5197V20.1046Z" fill="black"/>
<path d="M87.7856 20.1046L78.8741 29.0277V37.2367H87.0831L96.0004 28.3252H93.5911C92.0514 28.3252 90.5747 27.7136 89.486 26.6248C88.3972 25.5361 87.7856 24.0594 87.7856 22.5197V20.1046Z" fill="#F6CD14"/>
</svg>
