<svg width="79" height="79" viewBox="0 0 79 79" fill="none" xmlns="http://www.w3.org/2000/svg">
<path fill-rule="evenodd" clip-rule="evenodd" d="M39.4268 0C61.242 0 78.9268 17.6848 78.9268 39.5C78.9268 61.3152 61.242 79 39.4268 79C18.4073 79 1.22583 62.5818 0 41.8701H1.0791C2.38783 41.8699 3.44824 40.8088 3.44824 39.5C3.44824 38.1912 2.38783 37.1301 1.0791 37.1299H0C1.22583 16.4182 18.4073 0 39.4268 0ZM35.1045 22.7412C34.1789 21.816 32.6784 21.8158 31.7529 22.7412C30.8275 23.6666 30.8277 25.1672 31.7529 26.0928L43.0742 37.415C42.3333 37.8158 41.8291 38.5986 41.8291 39.5C41.8291 40.4014 42.3333 41.1842 43.0742 41.585L31.7529 52.9072C30.8277 53.8328 30.8275 55.3334 31.7529 56.2588C32.6784 57.1842 34.1789 57.184 35.1045 56.2588L50.1875 41.1758C51.113 40.2503 51.113 38.7497 50.1875 37.8242L35.1045 22.7412ZM9.70312 37.1299C8.39421 37.1299 7.33301 38.1911 7.33301 39.5C7.33301 40.8089 8.39421 41.8701 9.70312 41.8701H18.3271C19.636 41.87 20.6973 40.8089 20.6973 39.5C20.6973 38.1911 19.636 37.13 18.3271 37.1299H9.70312ZM26.9512 37.1299C25.6423 37.1299 24.5811 38.1911 24.5811 39.5C24.5811 40.8089 25.6423 41.8701 26.9512 41.8701H35.5752C36.8841 41.8701 37.9453 40.8089 37.9453 39.5C37.9453 38.1911 36.8841 37.1299 35.5752 37.1299H26.9512Z" fill="#F6CD14"/>
</svg>
