<svg width="37" height="37" viewBox="0 0 37 37" fill="none" xmlns="http://www.w3.org/2000/svg">
<path fill-rule="evenodd" clip-rule="evenodd" d="M18.4658 0C28.6831 0 36.9658 8.28273 36.9658 18.5C36.9657 28.7172 28.683 37 18.4658 37C8.62146 37 0.574389 29.3105 0 19.6104H0.504883C1.11783 19.6104 1.6151 19.1129 1.61523 18.5C1.61523 17.887 1.11792 17.3896 0.504883 17.3896H0C0.574142 7.68926 8.62129 0 18.4658 0ZM16.4414 10.6514C16.0079 10.2179 15.3046 10.2179 14.8711 10.6514C14.4381 11.0848 14.438 11.7873 14.8711 12.2207L20.1738 17.5244C19.8271 17.7122 19.5908 18.078 19.5908 18.5C19.5909 18.922 19.8271 19.2879 20.1738 19.4756L14.8711 24.7793C14.4381 25.2127 14.4381 25.9153 14.8711 26.3486C15.3045 26.7819 16.008 26.7819 16.4414 26.3486L23.5049 19.2852C23.9383 18.8517 23.9382 18.1483 23.5049 17.7148L16.4414 10.6514ZM4.54395 17.3896C3.93098 17.3897 3.43457 17.887 3.43457 18.5C3.43471 19.1129 3.93107 19.6103 4.54395 19.6104H8.58301C9.19596 19.6104 9.69322 19.1129 9.69336 18.5C9.69336 17.887 9.19604 17.3896 8.58301 17.3896H4.54395ZM12.6221 17.3896C12.0092 17.3898 11.5127 17.8871 11.5127 18.5C11.5128 19.1128 12.0093 19.6102 12.6221 19.6104H16.6611C17.2741 19.6104 17.7713 19.1129 17.7715 18.5C17.7715 17.887 17.2742 17.3896 16.6611 17.3896H12.6221Z" fill="url(#paint0_linear_2678_938)" fill-opacity="0.25"/>
<defs>
<linearGradient id="paint0_linear_2678_938" x1="36.966" y1="18.5" x2="0" y2="18.5" gradientUnits="userSpaceOnUse">
<stop stop-color="#F6CD14"/>
<stop offset="1" stop-color="#FECE6A"/>
</linearGradient>
</defs>
</svg>
