<svg width="56" height="50" viewBox="0 0 56 50" fill="none" xmlns="http://www.w3.org/2000/svg">
<path fill-rule="evenodd" clip-rule="evenodd" d="M38.9032 1.61042L43.7304 11.1707H50.4C51.8852 11.1707 53.3096 11.7552 54.3598 12.7954C55.41 13.8357 56 15.2466 56 16.7178V19.4913C56.0002 20.5485 55.6953 21.5838 55.1214 22.4751C54.5474 23.3665 53.7283 24.0768 52.7604 24.5225L48.5072 43.485C48.0925 45.3327 47.0543 46.9851 45.5638 48.1696C44.0733 49.354 42.2197 49.9997 40.3088 50H15.6912C13.78 49.9995 11.926 49.3535 10.4355 48.1685C8.94492 46.9835 7.9069 45.3304 7.4928 43.4822L3.2368 24.5225C2.26944 24.0764 1.45086 23.3659 0.877426 22.4746C0.30399 21.5833 -0.00043076 20.5482 4.57484e-07 19.4913V16.7178C4.57484e-07 15.2466 0.589999 13.8357 1.6402 12.7954C2.69041 11.7552 4.11479 11.1707 5.6 11.1707H12.2696L17.0968 1.61042C17.4422 0.976035 18.0233 0.499736 18.717 0.282411C19.4108 0.0650864 20.1627 0.123806 20.8135 0.446131C21.4643 0.768457 21.9629 1.32907 22.2036 2.00922C22.4444 2.68937 22.4083 3.43564 22.1032 4.08994L18.5304 11.1707H37.4696L33.8968 4.08994C33.7188 3.76301 33.6089 3.404 33.5737 3.0342C33.5385 2.66441 33.5786 2.29137 33.6916 1.93722C33.8047 1.58307 33.9884 1.25502 34.2319 0.972548C34.4754 0.690072 34.7737 0.458921 35.1091 0.292808C35.4445 0.126696 35.8102 0.0290084 36.1844 0.00554117C36.5586 -0.0179261 36.9338 0.0333053 37.2877 0.156196C37.6415 0.279086 37.9669 0.471131 38.2444 0.720937C38.5219 0.970742 38.7459 1.27322 38.9032 1.61042ZM46.9112 25.0383H9.0888L12.9556 42.2813C13.0938 42.8972 13.4399 43.448 13.9367 43.8428C14.4336 44.2376 15.0514 44.4529 15.6884 44.453H40.306C40.943 44.4529 41.5608 44.2376 42.0577 43.8428C42.5545 43.448 42.9006 42.8972 43.0388 42.2813L46.9112 25.0383ZM50.4 16.7178H5.6V19.4913H50.4V16.7178Z" fill="black"/>
</svg>
