<svg width="26" height="20" viewBox="0 0 26 20" fill="none" xmlns="http://www.w3.org/2000/svg">
<path d="M25.2352 0.682628C25.706 1.13804 25.9807 1.76613 25.999 2.42879C26.0173 3.09145 25.7778 3.73443 25.3329 4.21637L11.4877 19.2181C11.2633 19.4608 10.9936 19.655 10.6946 19.7893C10.3957 19.9235 10.0734 19.9951 9.74695 19.9998C9.42048 20.0044 9.09642 19.9421 8.79389 19.8164C8.49137 19.6907 8.21653 19.5043 7.98561 19.2681L0.655751 11.7672C0.224169 11.2933 -0.0107875 10.6664 0.000380654 10.0186C0.0115488 9.37089 0.26797 8.75286 0.715622 8.29477C1.16327 7.83667 1.76721 7.57427 2.40018 7.56284C3.03316 7.55141 3.64576 7.79185 4.10893 8.2335L9.66333 13.9142L21.782 0.782639C22.2271 0.300908 22.8408 0.0197565 23.4884 0.00100193C24.1359 -0.0177526 24.7643 0.227425 25.2352 0.682628Z" fill="#F6CD14"/>
</svg>
