<svg width="33" height="40" viewBox="0 0 33 40" fill="none" xmlns="http://www.w3.org/2000/svg">
<path d="M10.9785 13.0591H10.997V13.0776H10.9785V13.0591Z" stroke="black" stroke-width="7.5" stroke-linejoin="round"/>
<path d="M21.5625 19.9968H21.581V20.0153H21.5625V19.9968Z" stroke="black" stroke-width="7.5" stroke-linejoin="round"/>
<path d="M16.2501 38.49L26.6802 27.6556C28.7429 25.5128 30.1477 22.7827 30.7167 19.8106C31.2858 16.8385 30.9937 13.7579 29.8773 10.9582C28.7609 8.15857 26.8703 5.76568 24.4447 4.08213C22.0191 2.39859 19.1673 1.5 16.2501 1.5C13.3328 1.5 10.4811 2.39859 8.05544 4.08213C5.62982 5.76568 3.73927 8.15857 2.62285 10.9582C1.50643 13.7579 1.2143 16.8385 1.78338 19.8106C2.35246 22.7827 3.7572 25.5128 5.81996 27.6556L16.2501 38.49Z" stroke="#040404" stroke-width="3" stroke-linejoin="round"/>
</svg>
