<svg width="37" height="37" viewBox="0 0 37 37" fill="none" xmlns="http://www.w3.org/2000/svg">
<path fill-rule="evenodd" clip-rule="evenodd" d="M21.2857 1.04482C20.5015 0.370695 19.5017 0 18.4675 0C17.4334 0 16.4336 0.370695 15.6494 1.04482C15.1515 1.4713 14.6565 1.90114 14.1644 2.33432C13.5222 2.2049 12.8792 2.07982 12.2354 1.9591C11.2188 1.76692 10.1669 1.94574 9.27089 2.46309C8.37486 2.98044 7.6941 3.802 7.35225 4.77855C7.13205 5.40568 6.91802 6.02929 6.71015 6.64937C6.07597 6.86077 5.44091 7.07921 4.80497 7.30469C3.82842 7.64654 3.00686 8.3273 2.48951 9.22332C1.97217 10.1193 1.79334 11.1712 1.98552 12.1879C2.10883 12.8397 2.23567 13.487 2.36603 14.13C1.92563 14.6303 1.48523 15.1368 1.04482 15.6494C0.370695 16.4336 0 17.4334 0 18.4675C0 19.5017 0.370695 20.5015 1.04482 21.2857C1.48523 21.8018 1.92915 22.3109 2.3766 22.813C2.24272 23.4718 2.11236 24.1351 1.98552 24.8027C1.58916 26.9061 2.78617 28.9777 4.80497 29.6859C5.44091 29.9114 6.07597 30.1298 6.71015 30.3412C6.91978 30.9613 7.13381 31.5849 7.35225 32.212C7.69361 33.1891 8.37416 34.0112 9.27023 34.5291C10.1663 35.047 11.2184 35.2262 12.2354 35.0341C12.8978 34.9091 13.5566 34.7796 14.2119 34.6457C14.7034 35.0826 15.2011 35.5159 15.7049 35.9458C17.3247 37.341 19.7214 37.341 21.3412 35.9458C21.8432 35.5177 22.3382 35.0879 22.8262 34.6563C23.4657 34.7849 24.1086 34.9108 24.7552 35.0341C26.8559 35.4305 28.9302 34.2308 29.6383 32.212C29.8585 31.5849 30.0726 30.9613 30.2804 30.3412C30.9146 30.1298 31.5497 29.9114 32.1856 29.6859C33.1617 29.3435 33.9826 28.6626 34.4995 27.7666C35.0163 26.8706 35.1947 25.819 35.0024 24.8027C34.8808 24.1545 34.7548 23.5071 34.6246 22.8606C35.065 22.3603 35.5054 21.8538 35.9458 21.3412C36.6199 20.557 36.9906 19.5571 36.9906 18.523C36.9906 17.4889 36.6199 16.4891 35.9458 15.7049C35.5053 15.1919 35.0614 14.6819 34.614 14.175C34.7479 13.5161 34.8773 12.8537 35.0024 12.1879C35.1947 11.1715 35.0163 10.12 34.4995 9.22398C33.9826 8.328 33.1617 7.64703 32.1856 7.30469C31.552 7.08193 30.917 6.86349 30.2804 6.64937C30.0708 6.02753 29.8568 5.40392 29.6383 4.77855C29.2965 3.802 28.6157 2.98044 27.7197 2.46309C26.8237 1.94574 25.7718 1.76692 24.7552 1.9591C24.0946 2.08241 23.4357 2.21101 22.7786 2.34489C22.2839 1.90821 21.7862 1.47485 21.2857 1.04482ZM17.8003 3.54719C17.9855 3.38761 18.2218 3.29983 18.4662 3.29983C18.7107 3.29983 18.947 3.38761 19.1321 3.54719C19.8332 4.15142 20.5229 4.75565 21.2011 5.35988C21.5922 5.70868 22.126 5.85137 22.6386 5.74567C23.537 5.55718 24.4469 5.37661 25.3682 5.20398C25.6081 5.15868 25.8564 5.20098 26.0678 5.32317C26.2792 5.44536 26.4398 5.63934 26.5203 5.86986C26.8268 6.74362 27.1219 7.61121 27.4055 8.47264C27.5693 8.96941 27.9604 9.36048 28.4572 9.52431C29.3309 9.81146 30.2091 10.1109 31.0917 10.4227C31.5673 10.5892 31.8527 11.0781 31.7575 11.5748C31.5831 12.4979 31.4017 13.4113 31.2132 14.315C31.1611 14.5685 31.1689 14.8307 31.2359 15.0807C31.3028 15.3306 31.4272 15.5616 31.599 15.7551C32.2156 16.4421 32.8295 17.1433 33.4408 17.8585C33.6003 18.0436 33.6881 18.2799 33.6881 18.5244C33.6881 18.7688 33.6003 19.0051 33.4408 19.1902C32.833 19.8984 32.2226 20.596 31.6096 21.283C31.4381 21.4763 31.314 21.7068 31.2471 21.9563C31.1801 22.2057 31.1721 22.4674 31.2238 22.7205C31.4087 23.6084 31.5867 24.5068 31.7575 25.4158C31.8035 25.6561 31.7616 25.905 31.6393 26.117C31.5171 26.3289 31.3227 26.4899 31.0917 26.5705C30.2108 26.8805 29.3327 27.1791 28.4572 27.4663C28.2123 27.548 27.9899 27.6856 27.8074 27.8681C27.6248 28.0507 27.4873 28.2731 27.4055 28.5179C27.1201 29.3811 26.825 30.2487 26.5203 31.1207C26.4398 31.3512 26.2792 31.5452 26.0678 31.6674C25.8564 31.7896 25.6081 31.8319 25.3682 31.7866C24.4716 31.6182 23.5767 31.4411 22.6835 31.2555C22.4304 31.2039 22.1687 31.2118 21.9193 31.2788C21.6698 31.3457 21.4393 31.4699 21.246 31.6413C20.5731 32.2437 19.8878 32.8445 19.1902 33.4434C19.0051 33.603 18.7688 33.6908 18.5244 33.6908C18.2799 33.6908 18.0436 33.603 17.8585 33.4434C17.163 32.8458 16.4733 32.2416 15.7895 31.6307C15.5962 31.4593 15.3657 31.3352 15.1162 31.2682C14.8668 31.2013 14.6051 31.1933 14.352 31.2449C13.4536 31.4334 12.5437 31.614 11.6224 31.7866C11.3824 31.8319 11.1342 31.7896 10.9228 31.6674C10.7114 31.5452 10.5508 31.3512 10.4703 31.1207C10.1638 30.2487 9.86871 29.3811 9.58509 28.5179C9.50333 28.2731 9.36575 28.0507 9.18323 27.8681C9.00071 27.6856 8.77824 27.548 8.53341 27.4663C7.65965 27.1791 6.78149 26.8797 5.89893 26.5679C5.66841 26.4873 5.47443 26.3268 5.35223 26.1153C5.23004 25.9039 5.18775 25.6557 5.23304 25.4158C5.40568 24.4909 5.58712 23.5766 5.77738 22.6729C5.82901 22.4198 5.82103 22.1582 5.75407 21.9087C5.68711 21.6592 5.56301 21.4287 5.39159 21.2355C4.77502 20.5484 4.1611 19.8473 3.54983 19.1321C3.39025 18.947 3.30247 18.7107 3.30247 18.4662C3.30247 18.2218 3.39025 17.9855 3.54983 17.8003C4.15758 17.0922 4.76798 16.3946 5.38102 15.7076C5.55244 15.5143 5.67654 15.2838 5.7435 15.0343C5.81046 14.7848 5.81844 14.5232 5.76681 14.2701C5.58184 13.3822 5.40392 12.4838 5.23304 11.5748C5.18706 11.3345 5.22902 11.0856 5.35126 10.8736C5.4735 10.6616 5.66788 10.5007 5.89893 10.4201C6.78149 10.1118 7.65877 9.81322 8.53077 9.52431C8.77609 9.4429 8.99908 9.30548 9.18208 9.12294C9.36508 8.9404 9.50306 8.71775 9.58509 8.47264C9.86695 7.61121 10.162 6.74362 10.4703 5.86986C10.5508 5.63934 10.7114 5.44536 10.9228 5.32317C11.1342 5.20098 11.3824 5.15868 11.6224 5.20398C12.5243 5.37309 13.4192 5.55013 14.3071 5.7351C14.5598 5.7863 14.8209 5.77811 15.0699 5.71116C15.3189 5.64421 15.549 5.52034 15.7419 5.34931C16.4166 4.74684 17.101 4.14613 17.8003 3.54719ZM25.1145 14.677C25.4863 14.3195 25.7041 13.8311 25.7215 13.3156C25.739 12.8001 25.5547 12.2981 25.208 11.9162C24.8612 11.5344 24.3792 11.3028 23.8644 11.2706C23.3496 11.2384 22.8426 11.4082 22.451 11.7439C20.67 13.3584 19.3065 14.8356 18.1491 16.6377C17.4403 17.7611 16.8269 18.942 16.3153 20.1679L14.6347 18.4372C14.2647 18.0794 13.7701 17.8796 13.2554 17.88C12.7408 17.8805 12.2465 18.0811 11.8771 18.4395C11.5077 18.7979 11.2922 19.2859 11.2763 19.8003C11.2603 20.3148 11.4451 20.8152 11.7915 21.1958L15.6336 25.1594C15.8689 25.4024 16.1624 25.5811 16.4863 25.6785C16.8102 25.776 17.1537 25.7889 17.484 25.716C17.8143 25.6432 18.1204 25.487 18.3733 25.2624C18.6262 25.0378 18.8174 24.7522 18.9286 24.4328C19.8086 21.904 20.5775 20.197 21.4865 18.778C22.3902 17.367 23.4842 16.1568 25.1145 14.6797" fill="#040404"/>
</svg>
