<svg width="37" height="40" viewBox="0 0 37 40" fill="none" xmlns="http://www.w3.org/2000/svg">
<path d="M5.36971 8.93828L2.39681 6.33636C1.97512 5.94707 1.68384 5.43707 1.56275 4.876C1.44167 4.31494 1.49668 3.73017 1.72027 3.20154C1.94387 2.67292 2.32515 2.22621 2.81204 1.92243C3.29893 1.61865 3.86771 1.47261 4.44068 1.50424H28.5955C29.1307 1.51064 29.6527 1.67104 30.0992 1.96626C30.5456 2.26149 30.8977 2.67905 31.1132 3.16906C31.3288 3.65907 31.3987 4.2008 31.3147 4.7295C31.2307 5.2582 30.9962 5.75153 30.6394 6.15051L27.6665 8.93828M5.36971 8.93828H27.6665M5.36971 8.93828V31.2404H27.6665V8.93828M5.36971 18.2308L23.9503 8.93828" stroke="#040404" stroke-width="3" stroke-linecap="round" stroke-linejoin="round"/>
<path d="M35.1051 27.5218V21.9462C35.1051 19.9746 34.3221 18.0837 32.9283 16.6896C31.5345 15.2954 29.6441 14.5122 27.6729 14.5122L5.37616 25.6633M9.09228 31.2388L27.6729 21.9462M27.6729 31.2388L30.6458 33.8407C31.0497 34.2226 31.3256 34.7201 31.4358 35.265C31.5459 35.8099 31.4849 36.3755 31.2611 36.8844C31.0372 37.3932 30.6615 37.8204 30.1855 38.1073C29.7094 38.3942 29.1563 38.5268 28.6019 38.487H4.44712C3.91195 38.4806 3.38993 38.3202 2.94346 38.025C2.49698 37.7297 2.14494 37.3122 1.92939 36.8222C1.71383 36.3322 1.6439 35.7904 1.72793 35.2617C1.81196 34.733 2.04641 34.2397 2.40326 33.8407L5.37616 31.2388" stroke="#040404" stroke-width="3" stroke-linecap="round" stroke-linejoin="round"/>
</svg>
