<svg width="40" height="40" viewBox="0 0 40 40" fill="none" xmlns="http://www.w3.org/2000/svg">
<path d="M14.7322 7.80327C17.0756 3.60109 18.2464 1.5 19.9979 1.5C21.7494 1.5 22.9202 3.60109 25.2636 7.80327L25.8702 8.89081C26.5361 10.0856 26.869 10.683 27.3869 11.077C27.9047 11.4709 28.5521 11.6171 29.8468 11.9093L31.0231 12.1756C35.573 13.2058 37.8461 13.72 38.388 15.4604C38.9281 17.199 37.3782 19.0134 34.2765 22.6404L33.4738 23.5781C32.5934 24.6083 32.1513 25.1243 31.9534 25.7606C31.7555 26.3987 31.8221 27.0867 31.9553 28.4609L32.0773 29.7131C32.5453 34.5534 32.7802 36.9726 31.3634 38.0472C29.9467 39.1217 27.816 38.1415 23.5583 36.181L22.4541 35.6742C21.2445 35.1156 20.6397 34.8382 19.9979 34.8382C19.3561 34.8382 18.7513 35.1156 17.5417 35.6742L16.4394 36.181C12.1799 38.1415 10.0492 39.1217 8.63426 38.049C7.21566 36.9726 7.45055 34.5534 7.91849 29.7131L8.04056 28.4628C8.17372 27.0867 8.24031 26.3987 8.04056 25.7624C7.8445 25.1243 7.40246 24.6083 6.52207 23.58L5.71937 22.6404C2.61767 19.0153 1.06774 17.2009 1.60781 15.4604C2.14788 13.72 4.42468 13.204 8.97458 12.1756L10.1509 11.9093C11.4437 11.6171 12.0892 11.4709 12.609 11.077C13.1287 10.683 13.4597 10.0856 14.1256 8.89081L14.7322 7.80327Z" stroke="black" stroke-width="3"/>
</svg>
