<svg width="16" height="18" viewBox="0 0 16 18" fill="none" xmlns="http://www.w3.org/2000/svg">
<path d="M5.25 6H5.25852V6.00852H5.25V6Z" stroke="#F6CD14" stroke-width="2" stroke-linejoin="round"/>
<path d="M10 9H10.0085V9.00852H10V9Z" stroke="#F6CD14" stroke-width="2" stroke-linejoin="round"/>
<path d="M7.62742 17L12.3138 12.3136C13.2406 11.3867 13.8718 10.2058 14.1275 8.92025C14.3832 7.63467 14.2519 6.30213 13.7503 5.09115C13.2487 3.88016 12.3993 2.84512 11.3094 2.1169C10.2195 1.38868 8.93819 1 7.62742 1C6.31665 1 5.03532 1.38868 3.94546 2.1169C2.85559 2.84512 2.00614 3.88016 1.50451 5.09115C1.00289 6.30213 0.871629 7.63467 1.12733 8.92025C1.38302 10.2058 2.01419 11.3867 2.94102 12.3136L7.62742 17Z" stroke="white" stroke-width="2" stroke-linejoin="round"/>
</svg>
