<svg width="77" height="17" viewBox="0 0 77 17" fill="none" xmlns="http://www.w3.org/2000/svg">
<path d="M59.1946 16.303L55.8164 3.13184H60.6726L62.221 11.158H62.3265L64.0508 3.13184H68.7663L70.561 11.0894H70.6666L72.1445 3.13184H77.0007L73.6225 16.303H68.3792L66.479 9.2372H66.3382L64.4379 16.303H59.1946Z" fill="#F6CD15"/>
<path d="M49.6842 16.4872C48.2265 16.4872 46.9702 16.223 45.9155 15.6946C44.8666 15.1606 44.0578 14.3962 43.4889 13.4013C42.926 12.4008 42.6445 11.2035 42.6445 9.80951C42.6445 8.47172 42.929 7.30257 43.4978 6.30204C44.0667 5.30152 44.8696 4.52302 45.9066 3.96654C46.9436 3.41007 48.1672 3.13184 49.5775 3.13184C50.6086 3.13184 51.5419 3.2836 52.3774 3.58713C53.2129 3.89066 53.9269 4.33191 54.5195 4.91086C55.1121 5.4842 55.5683 6.18119 55.8883 7.00185C56.2083 7.8225 56.3683 8.74715 56.3683 9.77578V10.855H44.1733V8.29185H51.853C51.847 7.92087 51.7463 7.59486 51.5508 7.31381C51.3611 7.02714 51.1034 6.80512 50.7775 6.64773C50.4575 6.48472 50.093 6.40322 49.6842 6.40322C49.2872 6.40322 48.9227 6.48472 48.5909 6.64773C48.2591 6.80512 47.9924 7.02433 47.7909 7.30538C47.5954 7.58643 47.4917 7.91525 47.4798 8.29185V11.0574C47.4798 11.4733 47.5717 11.8443 47.7554 12.1703C47.9391 12.4963 48.2028 12.7521 48.5465 12.9376C48.8901 13.123 49.3049 13.2158 49.7908 13.2158C50.1286 13.2158 50.4367 13.1708 50.7152 13.0809C50.9997 12.991 51.2426 12.8617 51.4441 12.693C51.6456 12.5188 51.7937 12.3108 51.8885 12.0691H56.3683C56.2142 12.9685 55.8498 13.7498 55.275 14.4131C54.7002 15.0707 53.9388 15.5822 52.9907 15.9476C52.0485 16.3073 50.9463 16.4872 49.6842 16.4872Z" fill="#F6CD15"/>
<path d="M42.3205 7.51616H38.2048C38.1832 7.25198 38.094 7.02433 37.9374 6.83322C37.7808 6.64211 37.5782 6.49596 37.3298 6.39479C37.0867 6.28799 36.8166 6.23459 36.5196 6.23459C36.1361 6.23459 35.8066 6.30766 35.5311 6.45381C35.2557 6.59995 35.1206 6.80793 35.126 7.07773C35.1206 7.26884 35.199 7.4459 35.361 7.60891C35.5284 7.77192 35.8498 7.89839 36.3251 7.98832L38.8529 8.46048C40.1276 8.70218 41.0755 9.1097 41.6967 9.68303C42.3232 10.2507 42.6392 11.0124 42.6446 11.9679C42.6392 12.8898 42.3745 13.6908 41.8506 14.3709C41.3321 15.0454 40.6218 15.5682 39.7198 15.9391C38.8232 16.3045 37.7997 16.4872 36.6492 16.4872C34.748 16.4872 33.2599 16.0825 32.1851 15.2731C31.1156 14.4636 30.5188 13.3957 30.3945 12.0691H34.8344C34.8938 12.4795 35.0882 12.797 35.4177 13.0219C35.7526 13.2411 36.1739 13.3507 36.6816 13.3507C37.0921 13.3507 37.4297 13.2776 37.6943 13.1315C37.9644 12.9853 38.1021 12.7774 38.1075 12.5076C38.1021 12.2602 37.9833 12.0635 37.7511 11.9174C37.5242 11.7712 37.1677 11.6532 36.6816 11.5632L34.4779 11.1585C33.2086 10.9281 32.258 10.4896 31.626 9.84323C30.9941 9.19682 30.6808 8.36493 30.6862 7.34754C30.6808 6.44819 30.9077 5.68655 31.3668 5.06263C31.8313 4.43308 32.4929 3.9553 33.3517 3.62929C34.2159 3.29765 35.2395 3.13184 36.4223 3.13184C38.221 3.13184 39.6388 3.51968 40.6758 4.29537C41.7183 5.07106 42.2665 6.14466 42.3205 7.51616Z" fill="#F6CD15"/>
<path d="M16.6699 16.3027V0H29.5647V3.56622H21.5273V6.36825H28.9008V9.93447H21.5273V12.7365H29.5298V16.3027H16.6699Z" fill="black"/>
<path d="M6.90467 16.3027H0V0H6.83458C8.6805 0 10.2752 0.326373 11.6188 0.979119C12.9682 1.62656 14.008 2.56057 14.7382 3.78115C15.4742 4.99642 15.8422 6.45316 15.8422 8.15136C15.8422 9.84956 15.4771 11.309 14.7469 12.5295C14.0167 13.7448 12.9828 14.6788 11.6451 15.3316C10.3074 15.979 8.72723 16.3027 6.90467 16.3027ZM4.87183 12.5455H6.72943C7.61734 12.5455 8.37382 12.4154 8.99886 12.1554C9.62974 11.8954 10.1087 11.4469 10.4359 10.8101C10.7688 10.1733 10.9353 9.28703 10.9353 8.15136C10.9353 7.01569 10.7659 6.12944 10.4271 5.49262C10.0941 4.85579 9.60345 4.40736 8.95505 4.14732C8.31248 3.88729 7.52387 3.75727 6.58923 3.75727H4.87183V12.5455Z" fill="black"/>
</svg>
