<svg width="283" height="61" viewBox="0 0 283 61" fill="none" xmlns="http://www.w3.org/2000/svg">
<path d="M217.557 59.9176L205.141 11.5098H222.989L228.679 41.0083H229.067L235.405 11.5098H252.735L259.331 40.7562H259.719L265.151 11.5098H282.999L270.583 59.9176H251.313L244.329 33.9488H243.811L236.827 59.9176H217.557Z" fill="#F6CD15"/>
<path d="M182.605 60.5947C177.248 60.5947 172.631 59.6237 168.754 57.6818C164.899 55.7192 161.927 52.9097 159.836 49.2531C157.767 45.5758 156.732 41.1756 156.732 36.0522C156.732 31.1355 157.778 26.8385 159.869 23.1612C161.959 19.484 164.91 16.6228 168.721 14.5776C172.533 12.5324 177.03 11.5098 182.213 11.5098C186.003 11.5098 189.433 12.0675 192.504 13.1831C195.574 14.2987 198.199 15.9204 200.376 18.0482C202.554 20.1554 204.231 22.7171 205.407 25.7332C206.583 28.7494 207.171 32.1477 207.171 35.9283V39.8947H162.351V30.4744H190.576C190.554 29.1109 190.184 27.9127 189.465 26.8798C188.769 25.8262 187.821 25.0102 186.623 24.4317C185.447 23.8326 184.108 23.5331 182.605 23.5331C181.146 23.5331 179.807 23.8326 178.587 24.4317C177.368 25.0102 176.387 25.8159 175.647 26.8488C174.928 27.8817 174.547 29.0903 174.504 30.4744V40.6384C174.504 42.1672 174.841 43.5306 175.516 44.7288C176.191 45.927 177.161 46.867 178.424 47.5487C179.687 48.2305 181.211 48.5713 182.997 48.5713C184.239 48.5713 185.371 48.4061 186.395 48.0755C187.44 47.745 188.333 47.2698 189.073 46.6501C189.814 46.0097 190.358 45.2453 190.707 44.357H207.171C206.605 47.6624 205.266 50.5339 203.153 52.9716C201.041 55.3887 198.242 57.2686 194.758 58.6114C191.295 59.9336 187.244 60.5947 182.605 60.5947Z" fill="#F6CD15"/>
<path d="M155.543 27.6235H140.416C140.336 26.6525 140.009 25.8159 139.433 25.1135C138.858 24.4111 138.113 23.874 137.2 23.5021C136.307 23.1096 135.314 22.9133 134.222 22.9133C132.813 22.9133 131.602 23.1819 130.59 23.719C129.577 24.2561 129.081 25.0205 129.101 26.0121C129.081 26.7145 129.369 27.3653 129.964 27.9644C130.58 28.5635 131.761 29.0283 133.508 29.3588L142.798 31.0941C147.483 31.9825 150.967 33.4802 153.25 35.5874C155.552 37.6739 156.714 40.4732 156.734 43.9851C156.714 47.3731 155.741 50.317 153.815 52.8167C151.91 55.2957 149.299 57.217 145.984 58.5804C142.689 59.9233 138.927 60.5947 134.699 60.5947C127.711 60.5947 122.242 59.1072 118.292 56.1324C114.361 53.1576 112.168 49.2324 111.711 44.357H128.029C128.247 45.8651 128.962 47.0323 130.173 47.8586C131.403 48.6643 132.952 49.0672 134.818 49.0672C136.327 49.0672 137.567 48.7986 138.54 48.2615C139.533 47.7243 140.039 46.96 140.059 45.9684C140.039 45.0594 139.602 44.3363 138.748 43.7992C137.915 43.2621 136.604 42.8282 134.818 42.4977L126.719 41.0103C122.053 40.1633 118.56 38.5519 116.237 36.1762C113.914 33.8004 112.763 30.7429 112.783 27.0037C112.763 23.6984 113.597 20.8991 115.284 18.606C116.991 16.2922 119.423 14.5363 122.58 13.3381C125.756 12.1192 129.518 11.5098 133.865 11.5098C140.475 11.5098 145.686 12.9352 149.498 15.7861C153.329 18.637 155.344 22.5828 155.543 27.6235Z" fill="#F6CD15"/>
<path d="M61.2715 59.9174V0H108.664V13.1069H79.1239V23.4052H106.224V36.5122H79.1239V46.8105H108.535V59.9174H61.2715Z" fill="white"/>
<path d="M25.3768 59.9174H0V0H25.1191C31.9034 0 37.7646 1.19952 42.7025 3.59856C47.6619 5.97809 51.4835 9.41086 54.1671 13.8969C56.8723 18.3634 58.2248 23.7173 58.2248 29.9587C58.2248 36.2001 56.883 41.5638 54.1993 46.0498C51.5157 50.5163 47.7156 53.9491 42.7991 56.3481C37.8826 58.7277 32.0752 59.9174 25.3768 59.9174ZM17.9054 46.1083H24.7327C27.996 46.1083 30.7763 45.6305 33.0735 44.6748C35.3922 43.719 37.1527 42.0709 38.355 39.7304C39.5787 37.3899 40.1906 34.1326 40.1906 29.9587C40.1906 25.7848 39.568 22.5275 38.3228 20.187C37.099 17.8465 35.2956 16.1984 32.9125 15.2427C30.5509 14.2869 27.6525 13.8091 24.2174 13.8091H17.9054V46.1083Z" fill="white"/>
</svg>
