<svg width="317" height="68" viewBox="0 0 317 68" fill="none" xmlns="http://www.w3.org/2000/svg">
<path d="M243.695 67.1162L229.787 12.8926H249.779L256.154 45.9351H256.588L263.687 12.8926H283.1L290.488 45.6527H290.923L297.008 12.8926H317L303.092 67.1162H281.506L273.683 38.0275H273.104L265.281 67.1162H243.695Z" fill="#F6CD15"/>
<path d="M204.544 67.8746C198.543 67.8746 193.371 66.787 189.029 64.6118C184.711 62.4134 181.381 59.2663 179.039 55.1704C176.721 51.0514 175.562 46.1225 175.562 40.3836C175.562 34.8761 176.733 30.0629 179.075 25.9439C181.417 21.8248 184.723 18.6199 188.992 16.329C193.261 14.038 198.299 12.8926 204.105 12.8926C208.349 12.8926 212.192 13.5174 215.631 14.767C219.071 16.0166 222.011 17.8331 224.45 20.2166C226.89 22.5769 228.768 25.4463 230.085 28.8249C231.403 32.2034 232.061 36.01 232.061 40.2447V44.6877H181.856V34.1356H213.472C213.448 32.6084 213.033 31.2662 212.228 30.1092C211.447 28.929 210.386 28.0149 209.045 27.367C207.727 26.6959 206.227 26.3604 204.544 26.3604C202.909 26.3604 201.409 26.6959 200.043 27.367C198.677 28.0149 197.579 28.9174 196.75 30.0745C195.944 31.2315 195.518 32.5852 195.469 34.1356V45.5208C195.469 47.2332 195.847 48.7605 196.603 50.1026C197.359 51.4448 198.445 52.4977 199.86 53.2613C201.275 54.025 202.982 54.4068 204.983 54.4068C206.373 54.4068 207.642 54.2217 208.788 53.8514C209.959 53.4812 210.96 52.9489 211.789 52.2547C212.618 51.5373 213.228 50.6811 213.619 49.6861H232.061C231.427 53.3886 229.927 56.6051 227.56 59.3357C225.194 62.0432 222.059 64.149 218.156 65.6531C214.277 67.1341 209.74 67.8746 204.544 67.8746Z" fill="#F6CD15"/>
<path d="M174.228 30.9422H157.284C157.196 29.8546 156.829 28.9174 156.184 28.1307C155.539 27.3439 154.705 26.7422 153.682 26.3257C152.682 25.886 151.57 25.6662 150.347 25.6662C148.768 25.6662 147.412 25.967 146.278 26.5687C145.143 27.1703 144.588 28.0265 144.61 29.1373C144.588 29.924 144.91 30.653 145.577 31.324C146.266 31.9951 147.589 32.5158 149.546 32.886L159.953 34.8298C165.201 35.8249 169.103 37.5026 171.66 39.8629C174.24 42.2001 175.54 45.3357 175.563 49.2696C175.54 53.0646 174.451 56.3622 172.294 59.1622C170.159 61.939 167.235 64.0911 163.522 65.6184C159.831 67.1225 155.617 67.8746 150.88 67.8746C143.053 67.8746 136.927 66.2085 132.502 62.8762C128.099 59.544 125.642 55.1473 125.131 49.6861H143.409C143.654 51.3754 144.454 52.6828 145.811 53.6084C147.189 54.5109 148.924 54.9622 151.014 54.9622C152.704 54.9622 154.094 54.6613 155.183 54.0597C156.295 53.458 156.862 52.6018 156.884 51.4911C156.862 50.4729 156.373 49.663 155.417 49.0613C154.483 48.4597 153.015 47.9737 151.014 47.6035L141.941 45.9373C136.716 44.9886 132.802 43.1836 130.201 40.5224C127.599 37.8613 126.309 34.4365 126.332 30.248C126.309 26.5455 127.243 23.41 129.133 20.8414C131.046 18.2496 133.77 16.2827 137.305 14.9405C140.863 13.5752 145.077 12.8926 149.947 12.8926C157.351 12.8926 163.188 14.4893 167.458 17.6827C171.749 20.8761 174.006 25.2959 174.228 30.9422Z" fill="#F6CD15"/>
<path d="M68.6328 67.116V0H121.719V14.6816H88.63V26.2172H118.985V40.8988H88.63V52.4344H121.575V67.116H68.6328Z" fill="black"/>
<path d="M28.4256 67.116H0V0H28.137C35.7364 0 42.3017 1.34363 47.8328 4.03089C53.3881 6.6963 57.6688 10.5415 60.6749 15.5665C63.705 20.5696 65.2201 26.5667 65.2201 33.558C65.2201 40.5492 63.717 46.5574 60.7109 51.5823C57.7048 56.5854 53.4482 60.4306 47.9411 63.1179C42.4339 65.7833 35.9287 67.116 28.4256 67.116ZM20.0566 51.6479H27.7041C31.3595 51.6479 34.4738 51.1126 37.047 50.042C39.6443 48.9715 41.6163 47.1254 42.963 44.5037C44.3338 41.882 45.0192 38.2334 45.0192 33.558C45.0192 28.8826 44.3217 25.234 42.9269 22.6123C41.5561 19.9906 39.536 18.1445 36.8666 17.0739C34.2213 16.0034 30.9747 15.4681 27.1269 15.4681H20.0566V51.6479Z" fill="black"/>
</svg>
