<svg width="398" height="86" viewBox="0 0 398 86" fill="none" xmlns="http://www.w3.org/2000/svg">
<path d="M305.541 84.1488L288.104 16.1641H313.17L321.162 57.5923H321.707L330.607 16.1641H354.946L364.21 57.2382H364.755L372.384 16.1641H397.45L380.012 84.1488H352.948L343.14 47.6778H342.413L332.605 84.1488H305.541Z" fill="#F6CD15" fill-opacity="0.4"/>
<path d="M256.451 85.0996C248.927 85.0996 242.443 83.736 236.999 81.0088C231.585 78.2525 227.41 74.3067 224.474 69.1713C221.568 64.007 220.115 57.8271 220.115 50.6318C220.115 43.7267 221.583 37.6919 224.52 32.5276C227.456 27.3632 231.6 23.3448 236.953 20.4725C242.305 17.6002 248.621 16.1641 255.901 16.1641C261.223 16.1641 266.04 16.9474 270.353 18.5141C274.665 20.0809 278.351 22.3584 281.41 25.3468C284.468 28.3061 286.823 31.9038 288.475 36.1397C290.127 40.3756 290.952 45.1483 290.952 50.4578V56.0283H228.006V42.7983H267.646C267.615 40.8834 267.095 39.2006 266.086 37.7499C265.107 36.2703 263.777 35.1242 262.095 34.3119C260.443 33.4705 258.562 33.0498 256.451 33.0498C254.402 33.0498 252.521 33.4705 250.808 34.3119C249.095 35.1242 247.719 36.2558 246.679 37.7064C245.67 39.1571 245.135 40.8544 245.073 42.7983V57.0728C245.073 59.2198 245.547 61.1347 246.496 62.8174C247.444 64.5002 248.805 65.8203 250.579 66.7777C252.353 67.7352 254.494 68.2139 257.002 68.2139C258.745 68.2139 260.336 67.9818 261.773 67.5176C263.242 67.0534 264.496 66.3861 265.535 65.5157C266.575 64.6162 267.34 63.5428 267.829 62.2952H290.952C290.157 66.9373 288.276 70.9702 285.309 74.3937C282.342 77.7883 278.412 80.4285 273.518 82.3144C268.655 84.1712 262.966 85.0996 256.451 85.0996Z" fill="#F6CD15" fill-opacity="0.4"/>
<path d="M218.446 38.7944H197.202C197.091 37.4308 196.631 36.2558 195.822 35.2693C195.014 34.2829 193.968 33.5285 192.686 33.0063C191.431 32.455 190.037 32.1794 188.504 32.1794C186.525 32.1794 184.824 32.5566 183.402 33.3109C181.98 34.0653 181.283 35.1387 181.311 36.5314C181.283 37.5178 181.687 38.4318 182.524 39.2731C183.388 40.1145 185.047 40.7673 187.5 41.2315L200.548 43.6687C207.127 44.9162 212.02 47.0197 215.226 49.979C218.46 52.9094 220.091 56.8407 220.119 61.7729C220.091 66.5311 218.725 70.6655 216.021 74.1761C213.345 77.6577 209.678 80.356 205.023 82.2708C200.395 84.1567 195.111 85.0996 189.173 85.0996C179.36 85.0996 171.679 83.0107 166.131 78.8328C160.611 74.6548 157.53 69.1423 156.889 62.2952H179.806C180.112 64.4132 181.116 66.0524 182.817 67.2129C184.545 68.3445 186.72 68.9102 189.34 68.9102C191.459 68.9102 193.202 68.533 194.568 67.7787C195.962 67.0243 196.673 65.9509 196.7 64.5582C196.673 63.2816 196.059 62.2662 194.86 61.5118C193.69 60.7575 191.849 60.1482 189.34 59.684L177.966 57.595C171.414 56.4055 166.507 54.1425 163.245 50.8059C159.983 47.4694 158.366 43.1754 158.394 37.924C158.366 33.2819 159.537 29.3506 161.907 26.1301C164.305 22.8806 167.72 20.4145 172.153 18.7317C176.613 17.02 181.897 16.1641 188.002 16.1641C197.286 16.1641 204.604 18.166 209.957 22.1698C215.338 26.1736 218.168 31.7152 218.446 38.7944Z" fill="#F6CD15" fill-opacity="0.4"/>
<path d="M86.0527 84.1489V0H152.611V18.4076H111.125V32.8707H149.184V51.2783H111.125V65.7413H152.431V84.1489H86.0527Z" fill="#D2D2D2" fill-opacity="0.4"/>
<path d="M35.6395 84.1489H0V0H35.2777C44.8057 0 53.0371 1.68462 59.9721 5.05387C66.9371 8.39572 72.3042 13.2167 76.0732 19.517C79.8723 25.7898 81.7719 33.3089 81.7719 42.0745C81.7719 50.84 79.8874 58.3728 76.1184 64.6731C72.3494 70.9459 67.0125 75.7669 60.1077 79.1361C53.203 82.478 45.0469 84.1489 35.6395 84.1489ZM25.1467 64.7552H34.7349C39.318 64.7552 43.2227 64.0841 46.4489 62.7419C49.7054 61.3997 52.1778 59.085 53.8663 55.798C55.585 52.5109 56.4443 47.9364 56.4443 42.0745C56.4443 36.2125 55.5699 31.638 53.8211 28.351C52.1024 25.0639 49.5697 22.7492 46.2228 21.407C42.9061 20.0648 38.8356 19.3937 34.0113 19.3937H25.1467V64.7552Z" fill="#D2D2D2" fill-opacity="0.4"/>
</svg>
