<svg width="14" height="9" viewBox="0 0 14 9" fill="none" xmlns="http://www.w3.org/2000/svg">
<path d="M7.00349 8.99804C7.13777 8.99929 7.27075 8.96854 7.39357 8.90782C7.51638 8.84711 7.62621 8.75784 7.71573 8.64595L13.7374 1.75074C13.9124 1.55709 13.9999 1.31845 13.9999 1.02699C14.0015 0.892453 13.9792 0.758898 13.9341 0.634122C13.8891 0.509346 13.8223 0.395848 13.7376 0.300251C13.6528 0.204654 13.552 0.128873 13.4408 0.0773306C13.3296 0.0257879 13.2103 -0.000484029 13.0899 4.77783e-05C12.9666 0.000309213 12.8446 0.0277405 12.7308 0.0807724C12.617 0.133804 12.5136 0.211396 12.4267 0.309109L7.00349 6.52946L1.5803 0.309109C1.40382 0.1132 1.16576 0.00226831 0.917052 4.77783e-05C0.796157 -0.00126325 0.676244 0.0244187 0.564346 0.0755878C0.452447 0.126757 0.350814 0.202383 0.265406 0.298032C0.179998 0.393682 0.112534 0.507429 0.0669693 0.632604C0.0214051 0.757779 -0.00134219 0.891863 6.11952e-05 1.02699C6.11952e-05 1.30867 0.0945602 1.55709 0.269558 1.75074L6.293 8.64595C6.49775 8.88459 6.73574 8.99804 7.00349 8.99804Z" fill="#F6CD14"/>
</svg>
