<svg width="17" height="17" viewBox="0 0 17 17" fill="none" xmlns="http://www.w3.org/2000/svg">
<path d="M4.53866 0.902588C4.95423 0.902588 6.61655 4.64279 6.61655 5.05837C6.61655 5.88953 5.36981 6.72069 4.95423 7.55184C4.53866 8.383 5.36981 9.21416 6.20097 10.0453C6.52512 10.3695 7.86328 11.7076 8.69444 11.2921C9.5256 10.8765 10.3568 9.62974 11.1879 9.62974C11.6035 9.62974 15.3437 11.2921 15.3437 11.7076C15.3437 13.3699 14.097 14.6167 12.8502 15.0323C11.6035 15.4478 10.7723 15.4478 9.11002 15.0323C7.4477 14.6167 6.20097 14.2011 4.12308 12.1232C2.04518 10.0453 1.62961 8.79858 1.21403 7.13627C0.798449 5.47395 0.798449 4.64279 1.21403 3.39606C1.62961 2.14932 2.87634 0.902588 4.53866 0.902588Z" stroke="#F6CD14" stroke-width="1.80517" stroke-linecap="round" stroke-linejoin="round"/>
</svg>
