<svg width="23" height="23" viewBox="0 0 23 23" fill="none" xmlns="http://www.w3.org/2000/svg">
<path d="M6.28777 1C6.89209 1 9.30935 6.43885 9.30935 7.04317C9.30935 8.2518 7.4964 9.46043 6.89209 10.6691C6.28777 11.8777 7.4964 13.0863 8.70504 14.295C9.1764 14.7663 11.1223 16.7122 12.3309 16.1079C13.5396 15.5036 14.7482 13.6906 15.9568 13.6906C16.5612 13.6906 22 16.1079 22 16.7122C22 19.1295 20.187 20.9424 18.3741 21.5468C16.5612 22.1511 15.3525 22.1511 12.9353 21.5468C10.518 20.9424 8.70504 20.3381 5.68345 17.3165C2.66187 14.295 2.05755 12.482 1.45324 10.0647C0.848921 7.64748 0.848921 6.43885 1.45324 4.6259C2.05755 2.81295 3.8705 1 6.28777 1Z" stroke="#040404" stroke-width="2" stroke-linecap="round" stroke-linejoin="round"/>
</svg>
