<svg width="251" height="3" viewBox="0 0 251 3" fill="none" xmlns="http://www.w3.org/2000/svg">
<path d="M0.0572057 1.57658C-0.0190686 1.50031 -0.0190686 1.37664 0.0572057 1.30037L1.30017 0.0574086C1.37644 -0.0188657 1.50011 -0.0188657 1.57638 0.0574086C1.65265 0.133683 1.65265 0.257348 1.57638 0.333622L0.471526 1.43848L1.57638 2.54333C1.65265 2.61961 1.65265 2.74327 1.57638 2.81954C1.50011 2.89582 1.37644 2.89582 1.30017 2.81954L0.0572057 1.57658ZM250.334 1.30037C250.41 1.37664 250.41 1.50031 250.334 1.57658L249.091 2.81954C249.014 2.89582 248.891 2.89582 248.815 2.81954C248.738 2.74327 248.738 2.61961 248.815 2.54333L249.919 1.43848L248.815 0.333622C248.738 0.257348 248.738 0.133683 248.815 0.0574086C248.891 -0.0188657 249.014 -0.0188657 249.091 0.0574086L250.334 1.30037ZM0.195312 1.43848V1.24316H2.35049V1.43848V1.63379H0.195312V1.43848ZM6.66084 1.43848V1.24316H10.9712V1.43848V1.63379H6.66084V1.43848ZM15.2815 1.43848V1.24316H19.5919V1.43848V1.63379H15.2815V1.43848ZM23.9022 1.43848V1.24316H28.2126V1.43848V1.63379H23.9022V1.43848ZM32.5229 1.43848V1.24316H36.8333V1.43848V1.63379H32.5229V1.43848ZM41.1436 1.43848V1.24316H45.454V1.43848V1.63379H41.1436V1.43848ZM49.7643 1.43848V1.24316H54.0747V1.43848V1.63379H49.7643V1.43848ZM58.385 1.43848V1.24316H62.6954V1.43848V1.63379H58.385V1.43848ZM67.0057 1.43848V1.24316H71.3161V1.43848V1.63379H67.0057V1.43848ZM75.6264 1.43848V1.24316H79.9368V1.43848V1.63379H75.6264V1.43848ZM84.2471 1.43848V1.24316H88.5575V1.43848V1.63379H84.2471V1.43848ZM92.8678 1.43848V1.24316H97.1782V1.43848V1.63379H92.8678V1.43848ZM101.489 1.43848V1.24316H105.799V1.43848V1.63379H101.489V1.43848ZM110.109 1.43848V1.24316H114.42V1.43848V1.63379H110.109V1.43848ZM118.73 1.43848V1.24316H123.04V1.43848V1.63379H118.73V1.43848ZM127.351 1.43848V1.24316H131.661V1.43848V1.63379H127.351V1.43848ZM135.971 1.43848V1.24316H140.282V1.43848V1.63379H135.971V1.43848ZM144.592 1.43848V1.24316H148.902V1.43848V1.63379H144.592V1.43848ZM153.213 1.43848V1.24316H157.523V1.43848V1.63379H153.213V1.43848ZM161.833 1.43848V1.24316H166.144V1.43848V1.63379H161.833V1.43848ZM170.454 1.43848V1.24316H174.764V1.43848V1.63379H170.454V1.43848ZM179.075 1.43848V1.24316H183.385V1.43848V1.63379H179.075V1.43848ZM187.696 1.43848V1.24316H192.006V1.43848V1.63379H187.696V1.43848ZM196.316 1.43848V1.24316H200.627V1.43848V1.63379H196.316V1.43848ZM204.937 1.43848V1.24316H209.247V1.43848V1.63379H204.937V1.43848ZM213.558 1.43848V1.24316H217.868V1.43848V1.63379H213.558V1.43848ZM222.178 1.43848V1.24316H226.489V1.43848V1.63379H222.178V1.43848ZM230.799 1.43848V1.24316H235.109V1.43848V1.63379H230.799V1.43848ZM239.42 1.43848V1.24316H243.73V1.43848V1.63379H239.42V1.43848ZM248.04 1.43848V1.24316H250.196V1.43848V1.63379H248.04V1.43848Z" fill="#535359"/>
</svg>
