<svg width="8" height="641" viewBox="0 0 8 641" fill="none" xmlns="http://www.w3.org/2000/svg">
<path d="M4.03519 0.146447C3.83993 -0.0488155 3.52335 -0.0488155 3.32809 0.146447L0.146107 3.32843C-0.0491555 3.52369 -0.0491555 3.84027 0.146107 4.03553C0.341369 4.2308 0.657951 4.2308 0.853214 4.03553L3.68164 1.20711L6.51007 4.03553C6.70533 4.2308 7.02191 4.2308 7.21717 4.03553C7.41244 3.84027 7.41244 3.52369 7.21717 3.32843L4.03519 0.146447ZM3.32809 640.854C3.52335 641.05 3.83993 641.05 4.03519 640.854L7.21717 637.672C7.41244 637.477 7.41244 637.161 7.21717 636.965C7.02191 636.77 6.70533 636.77 6.51007 636.965L3.68164 639.794L0.853214 636.965C0.657951 636.77 0.341369 636.77 0.146107 636.965C-0.0491555 637.161 -0.0491555 637.477 0.146107 637.672L3.32809 640.854ZM3.68164 0.5H3.18164V6.01725H3.68164H4.18164V0.5H3.68164ZM3.68164 17.0517H3.18164V28.0862H3.68164H4.18164V17.0517H3.68164ZM3.68164 39.1207H3.18164V50.1552H3.68164H4.18164V39.1207H3.68164ZM3.68164 61.1897H3.18164V72.2242H3.68164H4.18164V61.1897H3.68164ZM3.68164 83.2587H3.18164V94.2932H3.68164H4.18164V83.2587H3.68164ZM3.68164 105.328H3.18164V116.362H3.68164H4.18164V105.328H3.68164ZM3.68164 127.397H3.18164V138.431H3.68164H4.18164V127.397H3.68164ZM3.68164 149.466H3.18164V160.5H3.68164H4.18164V149.466H3.68164ZM3.68164 171.535H3.18164V182.569H3.68164H4.18164V171.535H3.68164ZM3.68164 193.604H3.18164V204.638H3.68164H4.18164V193.604H3.68164ZM3.68164 215.673H3.18164V226.707H3.68164H4.18164V215.673H3.68164ZM3.68164 237.742H3.18164V248.776H3.68164H4.18164V237.742H3.68164ZM3.68164 259.811H3.18164V270.845H3.68164H4.18164V259.811H3.68164ZM3.68164 281.88H3.18164V292.914H3.68164H4.18164V281.88H3.68164ZM3.68164 303.949H3.18164V314.983H3.68164H4.18164V303.949H3.68164ZM3.68164 326.018H3.18164V337.052H3.68164H4.18164V326.018H3.68164ZM3.68164 348.087H3.18164V359.121H3.68164H4.18164V348.087H3.68164ZM3.68164 370.156H3.18164V381.19H3.68164H4.18164V370.156H3.68164ZM3.68164 392.225H3.18164V403.259H3.68164H4.18164V392.225H3.68164ZM3.68164 414.293H3.18164V425.328H3.68164H4.18164V414.293H3.68164ZM3.68164 436.362H3.18164V447.397H3.68164H4.18164V436.362H3.68164ZM3.68164 458.431H3.18164V469.466H3.68164H4.18164V458.431H3.68164ZM3.68164 480.5H3.18164V491.535H3.68164H4.18164V480.5H3.68164ZM3.68164 502.569H3.18164V513.604H3.68164H4.18164V502.569H3.68164ZM3.68164 524.638H3.18164V535.673H3.68164H4.18164V524.638H3.68164ZM3.68164 546.707H3.18164V557.742H3.68164H4.18164V546.707H3.68164ZM3.68164 568.776H3.18164V579.811H3.68164H4.18164V568.776H3.68164ZM3.68164 590.845H3.18164V601.88H3.68164H4.18164V590.845H3.68164ZM3.68164 612.914H3.18164V623.949H3.68164H4.18164V612.914H3.68164ZM3.68164 634.983H3.18164V640.501H3.68164H4.18164V634.983H3.68164Z" fill="#535359"/>
</svg>
