<svg width="22" height="21" viewBox="0 0 22 21" fill="none" xmlns="http://www.w3.org/2000/svg">
<path fill-rule="evenodd" clip-rule="evenodd" d="M8.61767 1C9.20575 1 9.78369 1.058 10.3403 1.17C10.6039 1.22278 10.8354 1.37664 10.9839 1.59775C11.1324 1.81886 11.1857 2.08909 11.1322 2.349C11.0787 2.60891 10.9227 2.83721 10.6985 2.98368C10.4743 3.13014 10.2003 3.18278 9.9368 3.13C8.65974 2.87306 7.33411 2.99534 6.12752 3.48139C4.92092 3.96743 3.88753 4.7954 3.15802 5.86063C2.4285 6.92586 2.0356 8.1805 2.02901 9.46594C2.02241 10.7514 2.40241 12.0099 3.12096 13.0823C3.83951 14.1548 4.86435 14.993 6.06589 15.4911C7.26744 15.9892 8.59175 16.1247 9.87137 15.8805C11.151 15.6363 12.3285 15.0234 13.255 14.1193C14.1814 13.2152 14.8153 12.0604 15.0764 10.801C15.1029 10.6723 15.1548 10.55 15.2293 10.4411C15.3037 10.3322 15.3991 10.2388 15.5101 10.1663C15.6211 10.0938 15.7455 10.0435 15.8762 10.0184C16.0069 9.99334 16.1413 9.99387 16.2718 10.02C16.4023 10.0461 16.5263 10.0974 16.6367 10.1708C16.7471 10.2441 16.8418 10.3383 16.9154 10.4477C16.9889 10.5572 17.0398 10.6799 17.0653 10.8088C17.0907 10.9377 17.0902 11.0703 17.0637 11.199C16.8168 12.3916 16.313 13.518 15.5864 14.502L15.3867 14.762L19.0895 18.414C19.2733 18.5935 19.3806 18.8356 19.3893 19.0905C19.3981 19.3455 19.3077 19.5942 19.1367 19.7856C18.9657 19.977 18.727 20.0967 18.4694 20.1202C18.2118 20.1437 17.9549 20.0692 17.7512 19.912L17.6558 19.828L13.953 16.176C12.8736 17.015 11.6064 17.5872 10.2572 17.8449C8.908 18.1026 7.51586 18.0384 6.19693 17.6576C4.878 17.2768 3.67053 16.5904 2.67527 15.6557C1.68 14.7211 0.925804 13.5652 0.475589 12.2846C0.0253749 11.004 -0.107797 9.63574 0.087183 8.29404C0.282163 6.95235 0.799642 5.67609 1.59645 4.57175C2.39325 3.46742 3.44627 2.56702 4.66766 1.94569C5.88905 1.32436 7.24338 1.00012 8.61767 1ZM17.2361 0C17.4258 -4.16657e-07 17.6116 0.052478 17.7726 0.151471C17.9336 0.250465 18.0631 0.392002 18.1466 0.56L18.1953 0.677L18.3271 1.055C18.4662 1.45718 18.6903 1.82563 18.9847 2.13594C19.2791 2.44625 19.6369 2.69135 20.0345 2.855L20.2221 2.925L20.6054 3.054C20.7952 3.11786 20.9615 3.2358 21.0833 3.3929C21.2052 3.54999 21.277 3.7392 21.2898 3.93658C21.3027 4.13396 21.2558 4.33065 21.1553 4.50178C21.0547 4.67291 20.905 4.8108 20.725 4.898L20.6054 4.946L20.2221 5.076C19.8143 5.2132 19.4407 5.43428 19.1261 5.72459C18.8115 6.01491 18.563 6.36783 18.397 6.76L18.3261 6.945L18.1953 7.323C18.1304 7.51014 18.0107 7.6741 17.8514 7.79416C17.692 7.91423 17.5002 7.98499 17.3 7.99752C17.0999 8.01004 16.9005 7.96376 16.7271 7.86452C16.5536 7.76528 16.4139 7.61755 16.3256 7.44L16.2769 7.323L16.1451 6.945C16.006 6.54282 15.7818 6.17437 15.4875 5.86406C15.1931 5.55375 14.8353 5.30865 14.4376 5.145L14.2501 5.075L13.8668 4.946C13.677 4.88214 13.5107 4.7642 13.3888 4.6071C13.267 4.45001 13.1951 4.2608 13.1823 4.06342C13.1695 3.86604 13.2163 3.66935 13.3169 3.49822C13.4174 3.32709 13.5671 3.1892 13.7471 3.102L13.8668 3.054L14.2501 2.924C14.6578 2.7868 15.0314 2.56572 15.3461 2.27541C15.6607 1.98509 15.9092 1.63217 16.0751 1.24L16.1461 1.055L16.2769 0.677C16.3452 0.479587 16.4744 0.308185 16.6464 0.18679C16.8184 0.0653942 17.0246 8.32272e-05 17.2361 0ZM17.2361 3.196C16.9962 3.4937 16.7227 3.76344 16.4209 4C16.7237 4.23667 16.9954 4.50467 17.2361 4.804C17.476 4.50533 17.7478 4.23733 18.0513 4C17.7494 3.76344 17.4759 3.4937 17.2361 3.196Z" fill="#535359"/>
</svg>
