<svg width="37" height="37" viewBox="0 0 37 37" fill="none" xmlns="http://www.w3.org/2000/svg">
<path d="M18.1426 0C28.1808 0 36.3192 8.13755 36.3193 18.1758C36.3193 28.2141 28.1809 36.3525 18.1426 36.3525C8.47051 36.3524 0.56402 28.7971 0 19.2666H0.498047C1.10028 19.2665 1.58887 18.778 1.58887 18.1758C1.58887 17.5735 1.10028 17.085 0.498047 17.085H0C0.564281 7.55471 8.47069 0.000138061 18.1426 0ZM16.1553 10.4639C15.7295 10.0383 15.0392 10.0385 14.6133 10.4639C14.1874 10.8898 14.1874 11.5809 14.6133 12.0068L19.8223 17.2168C19.4814 17.4012 19.25 17.7611 19.25 18.1758C19.25 18.5905 19.4814 18.9503 19.8223 19.1348L14.6133 24.3447C14.1874 24.7706 14.1874 25.4618 14.6133 25.8877C15.0392 26.3131 15.7295 26.3133 16.1553 25.8877L23.0957 18.9473C23.5216 18.5214 23.5216 17.8302 23.0957 17.4043L16.1553 10.4639ZM4.4668 17.085C3.8645 17.085 3.37598 17.5735 3.37598 18.1758C3.37598 18.7781 3.8645 19.2666 4.4668 19.2666H8.43457C9.03687 19.2666 9.52539 18.7781 9.52539 18.1758C9.52539 17.5735 9.03687 17.085 8.43457 17.085H4.4668ZM12.4033 17.085C11.801 17.085 11.3125 17.5735 11.3125 18.1758C11.3125 18.7781 11.801 19.2666 12.4033 19.2666H16.3721C16.9742 19.2664 17.4619 18.7779 17.4619 18.1758C17.4619 17.5736 16.9742 17.0852 16.3721 17.085H12.4033Z" fill="url(#paint0_linear_2997_746)" fill-opacity="0.25"/>
<defs>
<linearGradient id="paint0_linear_2997_746" x1="36.3195" y1="18.1763" x2="0" y2="18.1763" gradientUnits="userSpaceOnUse">
<stop stop-color="#F6CD14"/>
<stop offset="1" stop-color="#FECE6A"/>
</linearGradient>
</defs>
</svg>
