<svg width="41" height="41" viewBox="0 0 41 41" fill="none" xmlns="http://www.w3.org/2000/svg">
<path d="M1.84961 20.3501C1.84961 22.7796 2.32813 25.1852 3.25784 27.4297C4.18755 29.6743 5.55025 31.7137 7.26813 33.4316C8.98602 35.1495 11.0254 36.5122 13.27 37.4419C15.5145 38.3716 17.9202 38.8501 20.3496 38.8501C22.7791 38.8501 25.1847 38.3716 27.4293 37.4419C29.6738 36.5122 31.7132 35.1495 33.4311 33.4316C35.149 31.7137 36.5117 29.6743 37.4414 27.4297C38.3711 25.1852 38.8496 22.7796 38.8496 20.3501C38.8496 15.4436 36.9005 10.738 33.4311 7.26862C29.9617 3.7992 25.2561 1.8501 20.3496 1.8501C15.4431 1.8501 10.7376 3.7992 7.26813 7.26862C3.79871 10.738 1.84961 15.4436 1.84961 20.3501Z" stroke="#F6CD14" stroke-width="3.7" stroke-linecap="round" stroke-linejoin="round"/>
<path d="M20.6328 10.1985V20.6339L26.894 26.8951" stroke="#F6CD14" stroke-width="2.775" stroke-linecap="round" stroke-linejoin="round"/>
</svg>
