<svg width="37" height="37" viewBox="0 0 37 37" fill="none" xmlns="http://www.w3.org/2000/svg">
<path fill-rule="evenodd" clip-rule="evenodd" d="M18.4658 0C28.6831 0 36.9658 8.28273 36.9658 18.5C36.9658 28.7173 28.6831 37 18.4658 37C8.62138 37 0.574265 29.3106 0 19.6104H0.504883C1.11792 19.6104 1.61523 19.113 1.61523 18.5C1.61523 17.887 1.11792 17.3896 0.504883 17.3896H0C0.574265 7.68938 8.62138 0 18.4658 0ZM16.4414 10.6514C16.0079 10.2179 15.3046 10.2179 14.8711 10.6514C14.438 11.0848 14.438 11.7873 14.8711 12.2207L20.1738 17.5244C19.827 17.7121 19.5908 18.0779 19.5908 18.5C19.5908 18.9221 19.827 19.2879 20.1738 19.4756L14.8711 24.7793C14.438 25.2127 14.438 25.9152 14.8711 26.3486C15.3046 26.7821 16.0079 26.7821 16.4414 26.3486L23.5049 19.2852C23.9384 18.8517 23.9384 18.1483 23.5049 17.7148L16.4414 10.6514ZM4.54395 17.3896C3.93098 17.3897 3.43457 17.887 3.43457 18.5C3.43457 19.113 3.93098 19.6103 4.54395 19.6104H8.58301C9.19604 19.6104 9.69336 19.113 9.69336 18.5C9.69336 17.887 9.19604 17.3896 8.58301 17.3896H4.54395ZM12.6221 17.3896C12.0092 17.3898 11.5127 17.8871 11.5127 18.5C11.5127 19.1129 12.0092 19.6102 12.6221 19.6104H16.6611C17.2742 19.6104 17.7715 19.113 17.7715 18.5C17.7715 17.887 17.2742 17.3896 16.6611 17.3896H12.6221Z" fill="white"/>
</svg>
