<svg width="63" height="70" viewBox="0 0 63 70" fill="none" xmlns="http://www.w3.org/2000/svg">
<path d="M2 28.2222C2 15.8617 2 9.67983 5.84156 5.84156C9.68311 2.00328 15.8617 2 28.2222 2H34.7778C47.1383 2 53.3202 2 57.1584 5.84156C60.9967 9.68311 61 15.8617 61 28.2222V41.3333C61 53.6938 61 59.8757 57.1584 63.714C53.3169 67.5523 47.1383 67.5556 34.7778 67.5556H28.2222C15.8617 67.5556 9.67983 67.5556 5.84156 63.714C2.00328 59.8724 2 53.6938 2 41.3333V28.2222Z" stroke="#F6CD14" stroke-width="4"/>
<path d="M18.3887 28.2222H44.6109M18.3887 41.3333H34.7776" stroke="#F6CD14" stroke-width="4" stroke-linecap="round"/>
</svg>
