<svg width="37" height="37" viewBox="0 0 37 37" fill="none" xmlns="http://www.w3.org/2000/svg">
<path fill-rule="evenodd" clip-rule="evenodd" d="M18.499 0C8.28176 0 -0.000976562 8.28273 -0.000976562 18.5C-0.000976562 28.7173 8.28176 37 18.499 37C28.3435 37 36.3906 29.3106 36.9648 19.6104H36.46C35.8469 19.6104 35.3496 19.113 35.3496 18.5C35.3496 17.887 35.8469 17.3896 36.46 17.3896H36.9648C36.3906 7.68938 28.3435 0 18.499 0ZM20.5234 10.6514C20.9569 10.2179 21.6603 10.2179 22.0938 10.6514C22.5268 11.0848 22.5268 11.7873 22.0938 12.2207L16.791 17.5244C17.1378 17.7121 17.374 18.0779 17.374 18.5C17.374 18.9221 17.1378 19.2879 16.791 19.4756L22.0938 24.7793C22.5268 25.2127 22.5268 25.9152 22.0938 26.3486C21.6603 26.7821 20.9569 26.7821 20.5234 26.3486L13.46 19.2852C13.0265 18.8517 13.0265 18.1483 13.46 17.7148L20.5234 10.6514ZM32.4209 17.3896C33.0339 17.3897 33.5303 17.887 33.5303 18.5C33.5303 19.113 33.0339 19.6103 32.4209 19.6104H28.3818C27.7688 19.6104 27.2715 19.113 27.2715 18.5C27.2715 17.887 27.7688 17.3896 28.3818 17.3896H32.4209ZM24.3428 17.3896C24.9556 17.3898 25.4521 17.8871 25.4521 18.5C25.4521 19.1129 24.9556 19.6102 24.3428 19.6104H20.3037C19.6907 19.6104 19.1934 19.113 19.1934 18.5C19.1934 17.887 19.6907 17.3896 20.3037 17.3896H24.3428Z" fill="url(#paint0_linear_3085_473)"/>
<defs>
<linearGradient id="paint0_linear_3085_473" x1="-0.000976562" y1="18.5" x2="36.9648" y2="18.5" gradientUnits="userSpaceOnUse">
<stop stop-color="#FFF3BD"/>
<stop offset="1" stop-color="#F6CD14"/>
</linearGradient>
</defs>
</svg>
