<svg width="71" height="78" viewBox="0 0 71 78" fill="none" xmlns="http://www.w3.org/2000/svg">
<path d="M35.1758 2.22363C38.0277 2.22363 40.8415 2.8833 43.3955 4.15234L43.3965 4.15332L58.4443 11.627C64.2005 14.4905 68.1865 20.208 68.1289 26.8047C68.0628 34.1789 67.2997 44.722 63.8135 52.0244L63.8125 52.0254C59.9396 60.1515 51.0169 67.8018 44.5205 72.6523L44.5137 72.6572C41.8219 74.6821 38.5441 75.7764 35.1758 75.7764C31.8076 75.7763 28.5305 74.682 25.8389 72.6572L25.832 72.6514L24.5869 71.7109C18.2408 66.8475 10.1701 59.6403 6.53906 52.0254V52.0244L6.21973 51.3301C3.00555 44.0658 2.28767 33.9483 2.22363 26.8047C2.16607 20.2083 6.15148 14.4906 11.9072 11.627L11.9082 11.6279L26.9561 4.15332L26.957 4.15234C29.5109 2.88338 32.324 2.22371 35.1758 2.22363ZM35.1758 6.05371C32.9157 6.05378 30.6862 6.57735 28.6621 7.58301L13.6133 15.0576C9.00658 17.3464 6.01027 21.8107 6.05566 26.7695V26.7705C6.12199 34.1235 6.91014 43.903 9.99609 50.375C11.7378 54.0289 14.6793 57.6229 17.9131 60.8594C21.1675 64.1165 24.8264 67.1184 28.123 69.5771C32.3467 72.7271 38.0058 72.7271 42.2295 69.5771C45.5261 67.1184 49.185 64.1165 52.4395 60.8594C55.6732 57.6229 58.6147 54.0289 60.3564 50.375C63.4424 43.903 64.2306 34.1235 64.2969 26.7705L64.2959 26.7695C64.3413 21.8096 61.3409 17.3469 56.7402 15.0586L56.7393 15.0576L41.6904 7.58301H41.6895C39.6655 6.57752 37.4358 6.05371 35.1758 6.05371Z" fill="#040404" stroke="#040404" stroke-width="4.44639"/>
<path d="M45.3486 30.386C45.7911 30.3458 46.232 30.4603 46.5967 30.7073L46.748 30.8215C47.1376 31.1467 47.3828 31.613 47.4287 32.1184C47.4747 32.6242 47.3172 33.1276 46.9922 33.5178L39.5479 42.4563C39.0091 43.102 38.3413 43.6286 37.5879 44.0022C36.8346 44.3756 36.0118 44.5883 35.1719 44.6262C34.3318 44.6641 33.4929 44.5261 32.709 44.2219C32.635 44.1932 32.5619 44.1617 32.4893 44.1301L36.4697 40.1506L38.042 38.5784L37.9043 38.4407L44.0518 31.0657L44.0508 31.0647C44.3759 30.6753 44.8434 30.432 45.3486 30.386ZM26.8975 34.5159C27.3419 34.5159 27.7705 34.6703 28.1113 34.9495L28.252 35.0764L31.7539 38.5784L29.0459 41.2864L25.5439 37.7844C25.185 37.4253 24.9835 36.9386 24.9834 36.4309C24.9834 35.923 25.1839 35.4347 25.543 35.0754C25.9021 34.7166 26.3898 34.5159 26.8975 34.5159Z" fill="#040404" stroke="#F6CD14" stroke-width="4.44639"/>
</svg>
