<svg width="72" height="69" viewBox="0 0 72 69" fill="none" xmlns="http://www.w3.org/2000/svg">
<path d="M57.1172 14.6197L53.5758 18.1611M5.76667 65.9705C3.40572 63.6095 17.3176 43.8849 47.5023 6.79669C48.5781 5.47546 49.9148 4.39023 51.4289 3.60876C52.9429 2.82728 54.6018 2.36636 56.302 2.25476C58.0022 2.14317 59.7071 2.3833 61.3103 2.96016C62.9135 3.53702 64.3806 4.43823 65.6199 5.60749C66.8592 6.77676 67.8442 8.18898 68.5132 9.75597C69.1823 11.323 69.5211 13.0111 69.5085 14.7149C69.4959 16.4187 69.1321 18.1016 68.44 19.6585C67.7478 21.2154 66.7421 22.6129 65.4856 23.7637C28.0363 54.2625 8.12998 68.3314 5.76667 65.9705Z" stroke="#040404" stroke-width="4.45" stroke-linecap="round" stroke-linejoin="round"/>
<path d="M55.3459 16.3907C47.0838 6.94571 42.9509 2.22498 37.6388 2.22498C32.3267 2.22498 30.556 5.76641 30.556 9.30784C30.556 23.4736 59.4575 39.0771 51.8045 48.2636C48.0647 52.7541 39.8947 52.8143 31.4413 51.1251M15.466 46.2273C10.5328 44.2264 2.22461 39.41 2.22461 34.0979M64.1994 25.2443L69.5116 30.5564" stroke="#F6CD14" stroke-width="4.45" stroke-linecap="round" stroke-linejoin="round"/>
</svg>
