<svg width="63" height="63" viewBox="0 0 63 63" fill="none" xmlns="http://www.w3.org/2000/svg">
<path d="M31.293 0C48.6074 0 62.6435 14.0361 62.6436 31.3506C62.6436 48.6651 48.6074 62.7012 31.293 62.7012C14.61 62.7011 0.972752 49.6702 0 33.2314H0.857422C1.8961 33.2312 2.73828 32.3893 2.73828 31.3506C2.73815 30.312 1.89602 29.4699 0.857422 29.4697H0C0.972799 13.031 14.6101 2.48319e-05 31.293 0ZM27.8633 18.0498C27.1287 17.3154 25.9377 17.3154 25.2031 18.0498C24.4686 18.7844 24.4687 19.9754 25.2031 20.71L34.1875 29.6953C33.5998 30.0134 33.2003 30.6354 33.2002 31.3506C33.2002 32.0658 33.5998 32.6877 34.1875 33.0059L25.2031 41.9912C24.4686 42.7258 24.4687 43.9168 25.2031 44.6514C25.9377 45.386 27.1287 45.386 27.8633 44.6514L39.834 32.6807C40.5684 31.9461 40.5685 30.7551 39.834 30.0205L27.8633 18.0498ZM7.70215 29.4697C6.66336 29.4697 5.82142 30.3118 5.82129 31.3506C5.82129 32.3895 6.66328 33.2314 7.70215 33.2314H14.5469C15.5857 33.2314 16.4277 32.3894 16.4277 31.3506C16.4276 30.3119 15.5856 29.4698 14.5469 29.4697H7.70215ZM21.3916 29.4697C20.3528 29.4698 19.5109 30.3119 19.5107 31.3506C19.5107 32.3894 20.3528 33.2314 21.3916 33.2314H28.2363C29.2752 33.2314 30.1172 32.3895 30.1172 31.3506C30.1171 30.3118 29.2751 29.4697 28.2363 29.4697H21.3916Z" fill="url(#paint0_linear_2689_1246)"/>
<defs>
<linearGradient id="paint0_linear_2689_1246" x1="62.6439" y1="31.3506" x2="0" y2="31.3506" gradientUnits="userSpaceOnUse">
<stop stop-color="#F6CD14"/>
<stop offset="1" stop-color="#FECE6A"/>
</linearGradient>
</defs>
</svg>
