<svg width="58" height="69" viewBox="0 0 58 69" fill="none" xmlns="http://www.w3.org/2000/svg">
<path d="M19.2246 22.225H19.2587V22.2591H19.2246V22.225Z" stroke="#F6CD14" stroke-width="13" stroke-linejoin="round"/>
<path d="M38.2246 34.225H38.2587V34.2591H38.2246V34.225Z" stroke="#F6CD14" stroke-width="13" stroke-linejoin="round"/>
<path d="M28.7343 66.225L47.4799 47.4794C51.1872 43.7719 53.7119 39.0483 54.7347 33.906C55.7575 28.7636 55.2324 23.4335 53.2259 18.5896C51.2194 13.7456 47.8216 9.60544 43.4622 6.69258C39.1027 3.77971 33.9774 2.22498 28.7343 2.22498C23.4912 2.22498 18.3659 3.77971 14.0064 6.69258C9.64696 9.60544 6.24915 13.7456 4.24266 18.5896C2.23617 23.4335 1.71113 28.7636 2.73391 33.906C3.7567 39.0483 6.28138 43.7719 9.9887 47.4794L28.7343 66.225Z" stroke="#040404" stroke-width="4.45" stroke-linejoin="round"/>
</svg>
