<svg width="74" height="77" viewBox="0 0 74 77" fill="none" xmlns="http://www.w3.org/2000/svg">
<path d="M70.796 41.5008V36.5106C70.796 17.5746 55.4463 2.22498 36.5103 2.22498C17.5743 2.22498 2.22461 17.5746 2.22461 36.5106V41.5008M60.4349 33.9614C59.4578 21.9563 49.1206 12.5107 36.5103 12.5107C23.9 12.5107 13.5629 21.9563 12.5858 33.9614" stroke="#F6CD14" stroke-width="4.45" stroke-linecap="round" stroke-linejoin="round"/>
<path d="M36.5103 74.225C61.3675 74.225 70.796 69.0822 70.796 50.2251M7.02975 58.4245C4.1429 57.7028 2.22461 55.068 2.22461 52.0937V41.5029C2.22461 38.5269 4.1429 35.8903 7.02975 35.1686C9.81718 34.4709 13.4789 33.6875 17.0789 33.3103C19.544 33.0515 21.7143 34.4966 22.124 36.9395C22.484 39.072 22.796 42.2383 22.796 46.7966C22.796 51.3565 22.4823 54.5228 22.124 56.6537C21.7126 59.0965 19.544 60.5417 17.0789 60.2845C13.4789 59.9074 9.81718 59.1222 7.02975 58.4245Z" stroke="black" stroke-width="4.45" stroke-linecap="round" stroke-linejoin="round"/>
<path d="M65.9889 58.4245C68.8758 57.7028 70.7941 55.068 70.7941 52.0937V41.5029C70.7941 38.5269 68.8758 35.8903 65.9889 35.1686C63.2015 34.4709 59.5398 33.6875 55.9398 33.3103C53.4747 33.0515 51.3044 34.4966 50.8947 36.9395C50.5347 39.072 50.2227 42.2383 50.2227 46.7966C50.2227 51.3565 50.5364 54.5228 50.8947 56.6537C51.3061 59.0965 53.4747 60.5417 55.9398 60.2845C59.5398 59.9074 63.2015 59.1222 65.9889 58.4245Z" stroke="black" stroke-width="4.45" stroke-linecap="round" stroke-linejoin="round"/>
</svg>
