<svg width="62" height="36" viewBox="0 0 62 36" fill="none" xmlns="http://www.w3.org/2000/svg">
<path d="M0.117619 34.9693L-0.000297606 35.4552L0.971496 35.691L1.08941 35.2051L0.603516 35.0872L0.117619 34.9693ZM58.8501 35.5187C59.0882 35.6586 59.3946 35.5791 59.5346 35.341L61.8149 31.4615C61.9548 31.2235 61.8752 30.9171 61.6372 30.7771C61.3991 30.6372 61.0927 30.7167 60.9528 30.9548L58.9258 34.4032L55.4774 32.3763C55.2394 32.2364 54.9329 32.3159 54.793 32.554C54.6531 32.792 54.7326 33.0985 54.9707 33.2384L58.8501 35.5187ZM0.603516 35.0872L1.08941 35.2051C1.57674 33.197 2.12956 31.2603 2.7416 29.3996L2.26664 29.2434L1.79167 29.0872C1.17113 30.9736 0.611064 32.936 0.117619 34.9693L0.603516 35.0872ZM7.07738 18.1386L7.51411 18.3821C9.62302 14.5987 12.0171 11.363 14.5958 8.74582L14.2396 8.3949L13.8834 8.04398C11.2337 10.7333 8.7875 14.0438 6.64065 17.8952L7.07738 18.1386ZM24.2185 1.6875L24.3901 2.15711C28.1979 0.765245 32.1251 0.599455 35.9592 1.821L36.111 1.3446L36.2628 0.868193C32.2024 -0.425425 28.0475 -0.244465 24.0468 1.21789L24.2185 1.6875ZM46.0711 8.01746L45.7046 8.35756C48.0858 10.9237 50.3461 14.2014 52.4126 18.2509L52.8579 18.0237L53.3033 17.7964C51.2027 13.68 48.8922 10.3225 46.4376 7.67735L46.0711 8.01746ZM57.4084 29.2359L56.9325 29.3892C57.5264 31.232 58.0898 33.1725 58.6196 35.2133L59.1035 35.0876L59.5875 34.962C59.0531 32.9037 58.4844 30.9445 57.8843 29.0825L57.4084 29.2359Z" fill="black"/>
</svg>
