<svg width="168" height="37" viewBox="0 0 168 37" fill="none" xmlns="http://www.w3.org/2000/svg">
<path d="M19.5989 28.2857C23.9498 27.7287 27.4645 24.1803 28.0196 19.7842C28.2134 18.2838 28.0632 16.7584 27.5806 15.3259C27.098 13.8933 26.2958 12.5919 25.236 11.5219C24.1762 10.452 22.8871 9.6421 21.4682 9.15485C20.0493 8.66759 18.5384 8.51595 17.0522 8.71163C12.6979 9.27209 9.18321 12.8205 8.63155 17.2131C8.43773 18.7135 8.58793 20.2389 9.07056 21.6714C9.55318 23.104 10.3553 24.4054 11.4151 25.4754C12.4749 26.5453 13.764 27.3552 15.1829 27.8424C16.6019 28.3297 18.1127 28.4813 19.5989 28.2857ZM20.1922 0.0945774C24.381 0.539774 28.2915 2.42328 31.2699 5.43017C34.2482 8.43707 36.1138 12.3851 36.5548 16.6141C37.7032 28.3137 28.0439 38.0657 16.452 36.9062C12.2638 36.4603 8.35409 34.5764 5.37646 31.5696C2.39884 28.5628 0.533727 24.6152 0.0929015 20.3867C-1.05553 8.68711 8.60379 -1.06487 20.1922 0.0945774ZM46.3876 0.826677H73.2109C74.231 0.826677 74.8069 2.00364 74.1928 2.82331L55.634 27.543H70.175C72.8258 27.543 74.911 29.9775 74.3628 32.7518C73.9604 34.787 72.0694 36.1741 70.0154 36.1741H40.8848C39.8752 36.1741 39.3027 35.0077 39.9099 34.1985L58.4825 9.45774H46.5472C44.4932 9.45774 42.6023 8.0671 42.1998 6.03544C41.6481 3.26117 43.7368 0.826677 46.3876 0.826677ZM162.796 0.924757C165.564 0.336275 168 2.45201 168 5.14221V34.9271C168 35.9674 166.81 36.5454 166.005 35.9009L142.866 17.3672V31.8656C142.866 34.5558 140.431 36.6715 137.662 36.083C135.677 35.6627 134.317 33.7957 134.317 31.75V2.07019C134.317 1.02984 135.507 0.45187 136.312 1.0964L159.454 19.6301V5.2578C159.454 3.21213 160.818 1.3486 162.799 0.924757H162.796ZM102.546 0C116.713 0 128.197 8.28078 128.197 18.4951C128.197 28.7095 116.713 36.9903 102.546 36.9903C88.38 36.9903 76.8956 28.7095 76.8956 18.4951C76.8956 8.28078 88.38 0 102.546 0ZM102.546 8.63106C92.7586 8.63106 85.4447 13.8398 85.4447 18.4951C85.4447 23.1504 92.7586 28.3592 102.546 28.3592C112.334 28.3592 119.648 23.1539 119.648 18.4951C119.648 13.8363 112.334 8.63106 102.546 8.63106Z" fill="#535359"/>
</svg>
